<?xml version="1.0" standalone="no"?>
<!DOCTYPE svg PUBLIC "-//W3C//DTD SVG 1.1//EN" "http://www.w3.org/Graphics/SVG/1.1/DTD/svg11.dtd" >
<svg xmlns="http://www.w3.org/2000/svg">
<metadata>Generated by IcoMoon</metadata>
<defs>
<font id="icomoon" horiz-adv-x="1024">
<font-face units-per-em="1024" ascent="832" descent="-192" />
<missing-glyph horiz-adv-x="1024" />
<glyph unicode="&#x20;" d="" />
<glyph unicode="&#xe900;" horiz-adv-x="1021" d="M329.321 563.606c0-4.838-3.922-8.761-8.761-8.761s-8.761 3.922-8.761 8.761c0 4.838 3.922 8.761 8.761 8.761s8.761-3.922 8.761-8.761z" />
<glyph unicode="&#xe901;" horiz-adv-x="1021" d="M480.044 568.782c0-4.838-3.922-8.761-8.761-8.761s-8.761 3.922-8.761 8.761c0 4.838 3.922 8.761 8.761 8.761s8.761-3.922 8.761-8.761z" />
<glyph unicode="&#xe902;" horiz-adv-x="1021" d="M528.824 738.022c0-4.838-3.922-8.761-8.761-8.761s-8.761 3.922-8.761 8.761c0 4.838 3.922 8.761 8.761 8.761s8.761-3.922 8.761-8.761z" />
<glyph unicode="&#xe903;" horiz-adv-x="1021" d="M652.867 718.112c0-4.838-3.922-8.761-8.761-8.761s-8.761 3.922-8.761 8.761c0 4.838 3.922 8.761 8.761 8.761s8.761-3.922 8.761-8.761z" />
<glyph unicode="&#xe904;" horiz-adv-x="1021" d="M221.206 636.478c0-4.838-3.922-8.761-8.761-8.761s-8.761 3.922-8.761 8.761c0 4.838 3.922 8.761 8.761 8.761s8.761-3.922 8.761-8.761z" />
<glyph unicode="&#xe905;" horiz-adv-x="1021" d="M665.212 495.312c0-4.838-3.922-8.761-8.761-8.761s-8.761 3.922-8.761 8.761c0 4.838 3.922 8.761 8.761 8.761s8.761-3.922 8.761-8.761z" />
<glyph unicode="&#xe907;" horiz-adv-x="1021" d="M576.212 572.765c0-4.838-3.922-8.761-8.761-8.761s-8.761 3.922-8.761 8.761c0 4.838 3.922 8.761 8.761 8.761s8.761-3.922 8.761-8.761z" />
<glyph unicode="&#xe908;" horiz-adv-x="1021" d="M890.201 417.462c0-4.838-3.922-8.761-8.761-8.761s-8.761 3.922-8.761 8.761c0 4.838 3.922 8.761 8.761 8.761s8.761-3.922 8.761-8.761z" />
<glyph unicode="&#xe909;" horiz-adv-x="1021" d="M634.35 276.894c0-4.838-3.922-8.761-8.761-8.761s-8.761 3.922-8.761 8.761c0 4.838 3.922 8.761 8.761 8.761s8.761-3.922 8.761-8.761z" />
<glyph unicode="&#xe90a;" horiz-adv-x="1021" d="M412.945 436.377c0-4.838-3.922-8.761-8.761-8.761s-8.761 3.922-8.761 8.761c0 4.838 3.922 8.761 8.761 8.761s8.761-3.922 8.761-8.761z" />
<glyph unicode="&#xe90b;" horiz-adv-x="1021" d="M631.961 183.712c0-4.838-3.922-8.761-8.761-8.761s-8.761 3.922-8.761 8.761c0 4.838 3.922 8.761 8.761 8.761s8.761-3.922 8.761-8.761z" />
<glyph unicode="&#xe90c;" horiz-adv-x="1021" d="M782.286 79.58c0-4.838-3.922-8.761-8.761-8.761s-8.761 3.922-8.761 8.761c0 4.838 3.922 8.761 8.761 8.761s8.761-3.922 8.761-8.761z" />
<glyph unicode="&#xe90d;" horiz-adv-x="1021" d="M630.567-3.049c0-4.838-3.922-8.761-8.761-8.761s-8.761 3.922-8.761 8.761c0 4.838 3.922 8.761 8.761 8.761s8.761-3.922 8.761-8.761z" />
<glyph unicode="&#xe90e;" horiz-adv-x="1021" d="M512.299 75.996c0-4.838-3.922-8.761-8.761-8.761s-8.761 3.922-8.761 8.761c0 4.838 3.922 8.761 8.761 8.761s8.761-3.922 8.761-8.761z" />
<glyph unicode="&#xe90f;" horiz-adv-x="1021" d="M414.936 57.081c0-4.838-3.922-8.761-8.761-8.761s-8.761 3.922-8.761 8.761c0 4.838 3.922 8.761 8.761 8.761s8.761-3.922 8.761-8.761z" />
<glyph unicode="&#xe910;" horiz-adv-x="1021" d="M265.806 304.768c0-4.838-3.922-8.761-8.761-8.761s-8.761 3.922-8.761 8.761c0 4.838 3.922 8.761 8.761 8.761s8.761-3.922 8.761-8.761z" />
<glyph unicode="&#xe911;" horiz-adv-x="1021" d="M190.345 237.272c0-4.838-3.922-8.761-8.761-8.761s-8.761 3.922-8.761 8.761c0 4.838 3.922 8.761 8.761 8.761s8.761-3.922 8.761-8.761z" />
<glyph unicode="&#xe912;" horiz-adv-x="1021" d="M238.13-36.499c0-4.838-3.922-8.761-8.761-8.761s-8.761 3.922-8.761 8.761c0 4.838 3.922 8.761 8.761 8.761s8.761-3.922 8.761-8.761z" />
<glyph unicode="&#xe913;" horiz-adv-x="1021" d="M350.625 445.536c0-4.838-3.922-8.761-8.761-8.761s-8.761 3.922-8.761 8.761c0 4.838 3.922 8.761 8.761 8.761s8.761-3.922 8.761-8.761z" />
<glyph unicode="&#xe914;" horiz-adv-x="1021" d="M105.526 367.487c0-4.838-3.922-8.761-8.761-8.761s-8.761 3.922-8.761 8.761c0 4.838 3.922 8.761 8.761 8.761s8.761-3.922 8.761-8.761z" />
<glyph unicode="&#xe915;" horiz-adv-x="1021" d="M288.106 11.287c0-4.838-3.922-8.761-8.761-8.761s-8.761 3.922-8.761 8.761c0 4.838 3.922 8.761 8.761 8.761s8.761-3.922 8.761-8.761z" />
<glyph unicode="&#xe916;" horiz-adv-x="1021" d="M382.482-54.219c0-4.838-3.922-8.761-8.761-8.761s-8.761 3.922-8.761 8.761c0 4.838 3.922 8.761 8.761 8.761s8.761-3.922 8.761-8.761z" />
<glyph unicode="&#xe917;" horiz-adv-x="1021" d="M548.735-61.387c0-4.838-3.922-8.761-8.761-8.761s-8.761 3.922-8.761 8.761c0 4.838 3.922 8.761 8.761 8.761s8.761-3.922 8.761-8.761z" />
<glyph unicode="&#xe918;" horiz-adv-x="1021" d="M365.956 567.389c0-4.838-3.922-8.761-8.761-8.761s-8.761 3.922-8.761 8.761c0 4.838 3.922 8.761 8.761 8.761s8.761-3.922 8.761-8.761z" />
<glyph unicode="&#xe919;" horiz-adv-x="1021" d="M516.679 572.565c0-4.838-3.922-8.761-8.761-8.761s-8.761 3.922-8.761 8.761c0 4.838 3.922 8.761 8.761 8.761s8.761-3.922 8.761-8.761z" />
<glyph unicode="&#xe91a;" horiz-adv-x="1021" d="M565.46 741.805c0-4.838-3.922-8.761-8.761-8.761s-8.761 3.922-8.761 8.761c0 4.838 3.922 8.761 8.761 8.761s8.761-3.922 8.761-8.761z" />
<glyph unicode="&#xe91b;" horiz-adv-x="1021" d="M689.503 721.895c0-4.838-3.922-8.761-8.761-8.761s-8.761 3.922-8.761 8.761c0 4.838 3.922 8.761 8.761 8.761s8.761-3.922 8.761-8.761z" />
<glyph unicode="&#xe91c;" horiz-adv-x="1021" d="M257.842 640.261c0-4.838-3.922-8.761-8.761-8.761s-8.761 3.922-8.761 8.761c0 4.838 3.922 8.761 8.761 8.761s8.761-3.922 8.761-8.761z" />
<glyph unicode="&#xe91d;" horiz-adv-x="1021" d="M701.847 499.095c0-4.838-3.922-8.761-8.761-8.761s-8.761 3.922-8.761 8.761c0 4.838 3.922 8.761 8.761 8.761s8.761-3.922 8.761-8.761z" />
<glyph unicode="&#xe91e;" horiz-adv-x="1021" d="M612.648 576.548c0-4.838-3.922-8.761-8.761-8.761s-8.761 3.922-8.761 8.761c0 4.838 3.922 8.761 8.761 8.761s8.761-3.922 8.761-8.761z" />
<glyph unicode="&#xe91f;" horiz-adv-x="1021" d="M926.836 421.245c0-4.838-3.922-8.761-8.761-8.761s-8.761 3.922-8.761 8.761c0 4.838 3.922 8.761 8.761 8.761s8.761-3.922 8.761-8.761z" />
<glyph unicode="&#xe920;" horiz-adv-x="1021" d="M670.986 280.677c0-4.838-3.922-8.761-8.761-8.761s-8.761 3.922-8.761 8.761c0 4.838 3.922 8.761 8.761 8.761s8.761-3.922 8.761-8.761z" />
<glyph unicode="&#xe921;" horiz-adv-x="1021" d="M449.381 440.16c0-4.838-3.922-8.761-8.761-8.761s-8.761 3.922-8.761 8.761c0 4.838 3.922 8.761 8.761 8.761s8.761-3.922 8.761-8.761z" />
<glyph unicode="&#xe922;" horiz-adv-x="1021" d="M668.597 187.495c0-4.838-3.922-8.761-8.761-8.761s-8.761 3.922-8.761 8.761c0 4.838 3.922 8.761 8.761 8.761s8.761-3.922 8.761-8.761z" />
<glyph unicode="&#xe923;" horiz-adv-x="1021" d="M818.921 83.363c0-4.838-3.922-8.761-8.761-8.761s-8.761 3.922-8.761 8.761c0 4.838 3.922 8.761 8.761 8.761s8.761-3.922 8.761-8.761z" />
<glyph unicode="&#xe924;" horiz-adv-x="1021" d="M667.203 0.734c0-4.838-3.922-8.761-8.761-8.761s-8.761 3.922-8.761 8.761c0 4.838 3.922 8.761 8.761 8.761s8.761-3.922 8.761-8.761z" />
<glyph unicode="&#xe925;" horiz-adv-x="1021" d="M548.934 79.779c0-4.838-3.922-8.761-8.761-8.761s-8.761 3.922-8.761 8.761c0 4.838 3.922 8.761 8.761 8.761s8.761-3.922 8.761-8.761z" />
<glyph unicode="&#xe926;" horiz-adv-x="1021" d="M451.571 60.864c0-4.838-3.922-8.761-8.761-8.761s-8.761 3.922-8.761 8.761c0 4.838 3.922 8.761 8.761 8.761s8.761-3.922 8.761-8.761z" />
<glyph unicode="&#xe927;" horiz-adv-x="1021" d="M302.441 308.551c0-4.838-3.922-8.761-8.761-8.761s-8.761 3.922-8.761 8.761c0 4.838 3.922 8.761 8.761 8.761s8.761-3.922 8.761-8.761z" />
<glyph unicode="&#xe928;" horiz-adv-x="1021" d="M226.98 241.055c0-4.838-3.922-8.761-8.761-8.761s-8.761 3.922-8.761 8.761c0 4.838 3.922 8.761 8.761 8.761s8.761-3.922 8.761-8.761z" />
<glyph unicode="&#xe929;" horiz-adv-x="1021" d="M274.766-32.716c0-4.838-3.922-8.761-8.761-8.761s-8.761 3.922-8.761 8.761c0 4.838 3.922 8.761 8.761 8.761s8.761-3.922 8.761-8.761z" />
<glyph unicode="&#xe92a;" horiz-adv-x="1021" d="M387.26 449.319c0-4.838-3.922-8.761-8.761-8.761s-8.761 3.922-8.761 8.761c0 4.838 3.922 8.761 8.761 8.761s8.761-3.922 8.761-8.761z" />
<glyph unicode="&#xe92b;" horiz-adv-x="1021" d="M141.962 371.27c0-4.838-3.922-8.761-8.761-8.761s-8.761 3.922-8.761 8.761c0 4.838 3.922 8.761 8.761 8.761s8.761-3.922 8.761-8.761z" />
<glyph unicode="&#xe92c;" horiz-adv-x="1021" d="M324.741 15.070c0-4.838-3.922-8.761-8.761-8.761s-8.761 3.922-8.761 8.761c0 4.838 3.922 8.761 8.761 8.761s8.761-3.922 8.761-8.761z" />
<glyph unicode="&#xe92d;" horiz-adv-x="1021" d="M418.918-50.635c0-4.838-3.922-8.761-8.761-8.761s-8.761 3.922-8.761 8.761c0 4.838 3.922 8.761 8.761 8.761s8.761-3.922 8.761-8.761z" />
<glyph unicode="&#xe92e;" horiz-adv-x="1021" d="M585.37-57.604c0-4.838-3.922-8.761-8.761-8.761s-8.761 3.922-8.761 8.761c0 4.838 3.922 8.761 8.761 8.761s8.761-3.922 8.761-8.761z" />
<glyph unicode="&#xe92f;" horiz-adv-x="1021" d="M508.715 828.018c-279.345 0-505.728-227.379-505.728-507.719s226.383-507.719 505.728-507.719 505.728 227.379 505.728 507.719-226.383 507.719-505.728 507.719zM817.727 10.889c-82.629-82.231-192.336-127.627-309.012-127.627s-226.383 45.396-309.012 127.627c-82.629 82.43-128.025 191.938-128.025 308.415s45.396 225.985 128.025 308.415c82.629 82.231 192.336 127.627 309.012 127.627s226.383-45.396 309.012-127.627c82.629-82.43 128.025-191.938 128.025-308.415s-45.396-225.985-128.025-308.415z" />
<glyph unicode="&#xe930;" horiz-adv-x="1021" d="M115.083 307.357c5.376 72.873 49.378 111.897 132.206 117.273 77.253-4.579 118.667-41.016 124.043-109.309-6.371-73.669-49.976-111.897-130.812-114.685-78.248 2.787-120.061 38.427-125.437 106.721zM166.253 323.484c2.787-70.085 30.065-106.92 82.231-110.504 44.998 1.792 68.691 31.459 71.479 89-4.579 68.293-31.459 104.331-80.837 107.915-46.79-3.584-71.081-32.454-72.873-86.412z" />
<glyph unicode="&#xe931;" horiz-adv-x="1021" d="M446.992 374.654v-129.419c-2.787-20.707 8.562-30.065 33.649-28.273v-13.539h-83.624v13.539h2.787c17.123-0.996 25.685 6.371 25.685 21.503v159.085c-7.168 3.584-16.128 5.774-26.879 6.77v13.539h70.085l141.564-146.94v103.933c2.787 22.499-8.163 32.454-32.454 29.667h-3.982v13.34h89v-13.539h-3.982c-20.707 0-30.065-5.774-28.273-17.521v-183.376h-18.915l-164.66 171.231z" />
<glyph unicode="&#xe932;" horiz-adv-x="1021" d="M832.66 398.945h-75.461v-76.855h56.745c17.92-1.792 26.481 6.371 25.685 24.291h13.539v-68.691h-13.539c1.792 17.123-8.562 25.087-31.060 24.291h-51.17v-62.121c-1.792-13.539 2.787-19.313 13.539-17.521h57.94c20.707-1.792 33.649 9.955 39.025 35.043h13.539l-3.982-53.958h-208.065v13.539h13.539c17.92-0.996 26.879 7.168 26.879 24.291v138.976c0.796 17.123-8.96 25.087-29.667 24.291h-3.982v13.34h190.146l3.982-49.976h-13.539c-2.588 22.499-10.553 32.852-24.092 31.060z" />
</font>
</defs>
</svg>
